# xmcd
#
# Track frame offsets:
#	150
#	23038
#	45214
#	76671
#	93683
#	128727
#	139487
#	162277
#	181854
#	193210
#	208761
#	239072
#	255209
#	280146
#	329478
#
# Disc length: 4397 seconds
#
# Revision: 0
# Processed by: cddbd v1.4PL0 Copyright (c) Steve Scherf et al.
# Submitted via: EasyCDDAExtractor 4.6.9.1
#
DISCID=d0112b0f
DTITLE=Eskimo - Volume III
DYEAR=2001
DGENRE=
TTITLE0=Frankie Knuckles - Your Love
TTITLE1=Luomo - Tessio
TTITLE2=Dubtribe Soundsystem - Do It Now
TTITLE3=Cassioware - Hot Baby The Gogo Dancer (Hot Body Mix)
TTITLE4=Julien Jabre - Voodance
TTITLE5=Erotic Drum Band - Jerky Rythm
TTITLE6=Bb Boogie - Tell Him (Booty Bounce Part Ii)
TTITLE7=Johnny Harris - Odyssey Pt. 2
TTITLE8=Peter Godwin - French Emotions
TTITLE9=B-52's - Deep Sleep
TTITLE10=Tuilio De Piscopo - Stop Bajon (Primavera)
TTITLE11=William Devaughn - Be Thankfull For What You've Got
TTITLE12=Love Unlimited Orchestra - Midnight Groove
TTITLE13=Ramsey Lewis - Sun Goddess
TTITLE14=None
EXTD=
EXTT0=
EXTT1=
EXTT2=
EXTT3=
EXTT4=
EXTT5=
EXTT6=
EXTT7=
EXTT8=
EXTT9=
EXTT10=
EXTT11=
EXTT12=
EXTT13=
EXTT14=
PLAYORDER=
